# Blender v2.73 (sub 0) OBJ File: 'CubeHollow.blend'
# www.blender.org
mtllib CubeHollow2Sides.mtl
o Cube.001_Cube.005
v -100.000000 100.000000 100.000000
v -100.000000 100.000000 -100.000000
v -100.000000 -100.000000 -100.000000
v -100.000000 -100.000000 100.000000
v 100.000000 100.000000 100.000000
v 100.000000 -100.000000 100.000000
v -90.000000 100.000000 90.000000
v -90.000000 100.000000 -90.000000
v 90.000000 100.000000 -90.000000
v 100.000000 100.000000 -100.000000
v 90.000000 100.000000 90.000000
v 100.000000 -100.000000 -100.000000
v -90.000000 -100.000000 90.000000
v 90.000000 -100.000000 90.000000
v 90.000000 -100.000000 -90.000000
v -90.000000 -100.000000 -90.000000
v -100.000000 100.000000 -100.000000
v -100.000000 100.000000 -100.000000
v -100.000000 -100.000000 -100.000000
v -100.000000 -100.000000 -100.000000
v -100.000000 -100.000000 100.000000
v -100.000000 -100.000000 100.000000
v -100.000000 100.000000 100.000000
v -100.000000 100.000000 100.000000
v 100.000000 -100.000000 100.000000
v 100.000000 -100.000000 100.000000
v 100.000000 100.000000 100.000000
v 100.000000 100.000000 100.000000
v -90.000000 100.000000 90.000000
v -90.000000 100.000000 90.000000
v -90.000000 100.000000 -90.000000
v -90.000000 100.000000 -90.000000
v 90.000000 100.000000 -90.000000
v 90.000000 100.000000 -90.000000
v 100.000000 100.000000 -100.000000
v 100.000000 100.000000 -100.000000
v 90.000000 100.000000 90.000000
v 90.000000 100.000000 90.000000
v -90.000000 -100.000000 90.000000
v -90.000000 -100.000000 90.000000
v 90.000000 -100.000000 90.000000
v 90.000000 -100.000000 90.000000
v 90.000000 -100.000000 -90.000000
v 90.000000 -100.000000 -90.000000
v 100.000000 -100.000000 -100.000000
v 100.000000 -100.000000 -100.000000
v -90.000000 -100.000000 -90.000000
v -90.000000 -100.000000 -90.000000
vt 0.000746 0.556965
vt 0.278109 0.556965
vt 0.278109 0.834328
vt 0.279602 0.279602
vt 0.556965 0.279602
vt 0.556965 0.556965
vt 0.572326 0.543098
vt 0.558457 0.556966
vt 0.558458 0.279602
vt 0.835822 0.279602
vt 0.821954 0.293470
vt 0.572326 0.293470
vt 0.000746 0.279602
vt 0.278109 0.279602
vt 0.835822 0.556966
vt 0.821954 0.543098
vt 0.279602 0.556965
vt 0.556965 0.834328
vt 0.250373 0.000746
vt 0.250373 0.278109
vt 0.000746 0.278109
vt 0.999254 0.000746
vt 0.999254 0.278109
vt 0.749627 0.278109
vt 0.500000 0.000746
vt 0.500000 0.278109
vt 0.749627 0.000746
vt 0.835822 0.558459
vt 0.835822 0.835823
vt 0.821954 0.821955
vt 0.558457 0.835823
vt 0.558458 0.558459
vt 0.572326 0.572327
vt 0.000746 0.834328
vt 0.279602 0.834328
vt 0.000746 0.000746
vt 0.821954 0.572327
vt 0.572326 0.821955
vn -1.000000 0.000000 0.000000
vn 0.000000 0.000000 1.000000
vn 0.000000 1.000000 0.000000
vn 0.000000 0.000000 -1.000000
vn 1.000000 0.000000 0.000000
vn 0.000000 -1.000000 0.000000
g Cube.001_Cube.005_None
usemtl None
s 1
f 2/1/1 3/2/1 4/3/1
f 23/4/2 22/5/2 6/6/2
f 8/7/3 18/8/3 24/9/3
f 27/10/3 11/11/3 7/12/3
f 10/13/4 46/14/4 20/2/4
f 35/15/3 9/16/3 11/11/3
f 9/16/3 35/15/3 18/8/3
f 28/17/5 26/6/5 45/18/5
f 29/19/5 40/20/5 48/21/5
f 32/22/2 47/23/2 44/24/2
f 37/25/4 41/26/4 39/20/4
f 34/27/1 43/24/1 42/26/1
f 21/28/6 19/29/6 16/30/6
f 16/30/6 19/29/6 12/31/6
f 12/31/6 25/32/6 14/33/6
f 14/33/6 25/32/6 21/28/6
f 1/34/1 2/1/1 4/3/1
f 5/17/2 23/4/2 6/6/2
f 7/12/3 8/7/3 24/9/3
f 24/9/3 27/10/3 7/12/3
f 17/1/4 10/13/4 20/2/4
f 27/10/3 35/15/3 11/11/3
f 8/7/3 9/16/3 18/8/3
f 36/35/5 28/17/5 45/18/5
f 31/36/5 29/19/5 48/21/5
f 33/27/2 32/22/2 44/24/2
f 30/19/4 37/25/4 39/20/4
f 38/25/1 34/27/1 42/26/1
f 13/37/6 21/28/6 16/30/6
f 15/38/6 16/30/6 12/31/6
f 15/38/6 12/31/6 14/33/6
f 13/37/6 14/33/6 21/28/6
