# Blender v2.73 (sub 0) OBJ File: 'CylindersHollow.blend'
# www.blender.org
mtllib CylinderHollowOpen.mtl
o Cylinder.005_Cylinder.006
v 0.000000 -100.000000 -100.000000
v 0.000000 100.000000 -100.000000
v 19.509033 -100.000000 -98.078522
v 19.509033 100.000000 -98.078522
v 38.268345 -100.000000 -92.387947
v 38.268345 100.000000 -92.387947
v 55.557026 -100.000000 -83.146957
v 55.557026 100.000000 -83.146957
v 70.710678 -100.000000 -70.710678
v 70.710678 100.000000 -70.710678
v 83.146965 -100.000000 -55.557018
v 83.146965 100.000000 -55.557018
v 92.387947 -100.000000 -38.268341
v 92.387947 100.000000 -38.268341
v 98.078522 -100.000000 -19.509035
v 98.078522 100.000000 -19.509035
v 100.000000 -100.000000 -0.000008
v 100.000000 100.000000 -0.000008
v 98.078529 -100.000000 19.509020
v 98.078529 100.000000 19.509020
v 92.387955 -100.000000 38.268326
v 92.387955 100.000000 38.268326
v 83.146965 -100.000000 55.557018
v 83.146965 100.000000 55.557018
v 70.710678 -100.000000 70.710678
v 70.710678 100.000000 70.710678
v 55.557018 -100.000000 83.146965
v 55.557018 100.000000 83.146965
v 38.268326 -100.000000 92.387962
v 38.268326 100.000000 92.387962
v 19.509008 -100.000000 98.078529
v 19.509008 100.000000 98.078529
v -0.000033 -100.000000 100.000000
v -0.000033 100.000000 100.000000
v -19.509073 -100.000000 98.078522
v -19.509073 100.000000 98.078522
v -38.268387 -100.000000 92.387932
v -38.268387 100.000000 92.387932
v -55.557072 -100.000000 83.146927
v -55.557072 100.000000 83.146927
v -70.710724 -100.000000 70.710632
v -70.710724 100.000000 70.710632
v -83.147003 -100.000000 55.556965
v -83.147003 100.000000 55.556965
v -92.387985 -100.000000 38.268269
v -92.387985 100.000000 38.268269
v -98.078545 -100.000000 19.508945
v -98.078545 100.000000 19.508945
v -100.000000 -100.000000 -0.000097
v -100.000000 100.000000 -0.000097
v -98.078506 -100.000000 -19.509134
v -98.078506 100.000000 -19.509134
v -92.387909 -100.000000 -38.268448
v -92.387909 100.000000 -38.268448
v -83.146896 -100.000000 -55.557125
v -83.146896 100.000000 -55.557125
v -70.710587 -100.000000 -70.710770
v -70.710587 100.000000 -70.710770
v -55.556911 -100.000000 -83.147034
v -55.556911 100.000000 -83.147034
v -38.268208 -100.000000 -92.388008
v -38.268208 100.000000 -92.388008
v -19.508883 -100.000000 -98.078552
v -19.508883 100.000000 -98.078552
v 0.000001 100.000000 -90.000000
v 17.558130 100.000000 -88.270668
v 34.441509 100.000000 -83.149155
v 50.001324 100.000000 -74.832260
v 63.639614 100.000000 -63.639606
v 74.832268 100.000000 -50.001316
v 83.149155 100.000000 -34.441509
v 88.270668 100.000000 -17.558134
v 90.000000 100.000000 -0.000009
v 88.270676 100.000000 17.558115
v 83.149155 100.000000 34.441490
v 74.832268 100.000000 50.001312
v 63.639614 100.000000 63.639610
v 50.001316 100.000000 74.832260
v 34.441494 100.000000 83.149162
v 17.558107 100.000000 88.270668
v -0.000028 100.000000 89.999992
v -17.558165 100.000000 88.270660
v -34.441547 100.000000 83.149132
v -50.001362 100.000000 74.832230
v -63.639645 100.000000 63.639568
v -74.832298 100.000000 50.001263
v -83.149185 100.000000 34.441437
v -88.270683 100.000000 17.558048
v -90.000000 100.000000 -0.000090
v -88.270653 100.000000 -17.558224
v -83.149117 100.000000 -34.441605
v -74.832207 100.000000 -50.001415
v -63.639523 100.000000 -63.639690
v -50.001217 100.000000 -74.832329
v -34.441383 100.000000 -83.149208
v -17.557993 100.000000 -88.270699
v 0.000001 -90.000000 -90.000000
v 17.558130 -90.000000 -88.270668
v 34.441509 -90.000000 -83.149155
v 50.001324 -90.000000 -74.832260
v 63.639614 -90.000000 -63.639606
v 74.832268 -90.000000 -50.001316
v 83.149155 -90.000000 -34.441509
v 88.270668 -90.000000 -17.558134
v 90.000000 -90.000000 -0.000009
v 88.270676 -90.000000 17.558115
v 83.149155 -90.000000 34.441490
v 74.832268 -90.000000 50.001312
v 63.639614 -90.000000 63.639610
v 50.001316 -90.000000 74.832260
v 34.441494 -90.000000 83.149162
v 17.558107 -90.000000 88.270668
v -0.000028 -90.000000 89.999992
v -17.558165 -90.000000 88.270660
v -34.441547 -90.000000 83.149132
v -50.001362 -90.000000 74.832230
v -63.639645 -90.000000 63.639568
v -74.832298 -90.000000 50.001263
v -83.149185 -90.000000 34.441437
v -88.270683 -90.000000 17.558048
v -90.000000 -90.000000 -0.000090
v -88.270653 -90.000000 -17.558224
v -83.149117 -90.000000 -34.441605
v -74.832207 -90.000000 -50.001415
v -63.639523 -90.000000 -63.639690
v -50.001217 -90.000000 -74.832329
v -34.441383 -90.000000 -83.149208
v -17.557993 -90.000000 -88.270699
v 0.000000 -100.000000 -100.000000
v 19.509033 -100.000000 -98.078522
v 19.509033 100.000000 -98.078522
v 0.000000 100.000000 -100.000000
v 38.268345 -100.000000 -92.387947
v 38.268345 100.000000 -92.387947
v 55.557026 -100.000000 -83.146957
v 55.557026 100.000000 -83.146957
v 70.710678 -100.000000 -70.710678
v 70.710678 100.000000 -70.710678
v 83.146965 -100.000000 -55.557018
v 83.146965 100.000000 -55.557018
v 92.387947 -100.000000 -38.268341
v 92.387947 100.000000 -38.268341
v 98.078522 -100.000000 -19.509035
v 98.078522 100.000000 -19.509035
v 100.000000 -100.000000 -0.000008
v 100.000000 100.000000 -0.000008
v 98.078529 -100.000000 19.509020
v 98.078529 100.000000 19.509020
v 92.387955 -100.000000 38.268326
v 92.387955 100.000000 38.268326
v 83.146965 -100.000000 55.557018
v 83.146965 100.000000 55.557018
v 70.710678 -100.000000 70.710678
v 70.710678 100.000000 70.710678
v 55.557018 -100.000000 83.146965
v 55.557018 100.000000 83.146965
v 38.268326 -100.000000 92.387962
v 38.268326 100.000000 92.387962
v 19.509008 -100.000000 98.078529
v 19.509008 100.000000 98.078529
v -0.000033 -100.000000 100.000000
v -0.000033 100.000000 100.000000
v -19.509073 -100.000000 98.078522
v -19.509073 100.000000 98.078522
v -38.268387 -100.000000 92.387932
v -38.268387 100.000000 92.387932
v -55.557072 -100.000000 83.146927
v -55.557072 100.000000 83.146927
v -70.710724 -100.000000 70.710632
v -70.710724 100.000000 70.710632
v -83.147003 -100.000000 55.556965
v -83.147003 100.000000 55.556965
v -92.387985 -100.000000 38.268269
v -92.387985 100.000000 38.268269
v -98.078545 -100.000000 19.508945
v -98.078545 100.000000 19.508945
v -100.000000 -100.000000 -0.000097
v -100.000000 100.000000 -0.000097
v -98.078506 -100.000000 -19.509134
v -98.078506 100.000000 -19.509134
v -92.387909 -100.000000 -38.268448
v -92.387909 100.000000 -38.268448
v -83.146896 -100.000000 -55.557125
v -83.146896 100.000000 -55.557125
v -70.710587 -100.000000 -70.710770
v -70.710587 100.000000 -70.710770
v -55.556911 -100.000000 -83.147034
v -55.556911 100.000000 -83.147034
v -38.268208 -100.000000 -92.388008
v -38.268208 100.000000 -92.388008
v -19.508883 -100.000000 -98.078552
v -19.508883 100.000000 -98.078552
v 17.558130 100.000000 -88.270668
v 0.000001 100.000000 -90.000000
v 34.441509 100.000000 -83.149155
v 50.001324 100.000000 -74.832260
v 63.639614 100.000000 -63.639606
v 74.832268 100.000000 -50.001316
v 83.149155 100.000000 -34.441509
v 88.270668 100.000000 -17.558134
v 90.000000 100.000000 -0.000009
v 88.270676 100.000000 17.558115
v 83.149155 100.000000 34.441490
v 74.832268 100.000000 50.001312
v 63.639614 100.000000 63.639610
v 50.001316 100.000000 74.832260
v 34.441494 100.000000 83.149162
v 17.558107 100.000000 88.270668
v -0.000028 100.000000 89.999992
v -17.558165 100.000000 88.270660
v -34.441547 100.000000 83.149132
v -50.001362 100.000000 74.832230
v -63.639645 100.000000 63.639568
v -74.832298 100.000000 50.001263
v -83.149185 100.000000 34.441437
v -88.270683 100.000000 17.558048
v -90.000000 100.000000 -0.000090
v -88.270653 100.000000 -17.558224
v -83.149117 100.000000 -34.441605
v -74.832207 100.000000 -50.001415
v -63.639523 100.000000 -63.639690
v -50.001217 100.000000 -74.832329
v -34.441383 100.000000 -83.149208
v -17.557993 100.000000 -88.270699
v 17.558130 -90.000000 -88.270668
v 0.000001 -90.000000 -90.000000
v 34.441509 -90.000000 -83.149155
v 50.001324 -90.000000 -74.832260
v 63.639614 -90.000000 -63.639606
v 74.832268 -90.000000 -50.001316
v 83.149155 -90.000000 -34.441509
v 88.270668 -90.000000 -17.558134
v 90.000000 -90.000000 -0.000009
v 88.270676 -90.000000 17.558115
v 83.149155 -90.000000 34.441490
v 74.832268 -90.000000 50.001312
v 63.639614 -90.000000 63.639610
v 50.001316 -90.000000 74.832260
v 34.441494 -90.000000 83.149162
v 17.558107 -90.000000 88.270668
v -0.000028 -90.000000 89.999992
v -17.558165 -90.000000 88.270660
v -34.441547 -90.000000 83.149132
v -50.001362 -90.000000 74.832230
v -63.639645 -90.000000 63.639568
v -74.832298 -90.000000 50.001263
v -83.149185 -90.000000 34.441437
v -88.270683 -90.000000 17.558048
v -90.000000 -90.000000 -0.000090
v -88.270653 -90.000000 -17.558224
v -83.149117 -90.000000 -34.441605
v -74.832207 -90.000000 -50.001415
v -63.639523 -90.000000 -63.639690
v -50.001217 -90.000000 -74.832329
v -34.441383 -90.000000 -83.149208
v -17.557993 -90.000000 -88.270699
vt 0.000802 0.749600
vt 0.000802 0.718400
vt 0.319112 0.718399
vt 0.000802 0.687200
vt 0.319112 0.687199
vt 0.000802 0.656000
vt 0.319112 0.656000
vt 0.000802 0.624800
vt 0.319112 0.624800
vt 0.000802 0.593600
vt 0.319112 0.593600
vt 0.000802 0.562400
vt 0.319112 0.562400
vt 0.000801 0.531200
vt 0.319112 0.531200
vt 0.000801 0.500000
vt 0.319112 0.500001
vt 0.000801 0.468800
vt 0.319112 0.468801
vt 0.000802 0.437601
vt 0.319112 0.437601
vt 0.000802 0.406401
vt 0.319112 0.406401
vt 0.000802 0.375201
vt 0.319112 0.375201
vt 0.000802 0.344001
vt 0.319112 0.344001
vt 0.000802 0.312801
vt 0.319112 0.312801
vt 0.000802 0.281601
vt 0.319112 0.281601
vt 0.000802 0.250401
vt 0.319112 0.250401
vt 0.000802 0.219201
vt 0.319112 0.219202
vt 0.000802 0.188001
vt 0.319112 0.188002
vt 0.000802 0.156801
vt 0.319112 0.156802
vt 0.000802 0.125601
vt 0.319113 0.125602
vt 0.000802 0.094401
vt 0.319113 0.094402
vt 0.000802 0.063201
vt 0.319113 0.063202
vt 0.000802 0.032001
vt 0.319113 0.032002
vt 0.000802 0.000801
vt 0.319113 0.000803
vt 0.000802 0.999199
vt 0.000802 0.967999
vt 0.319113 0.967998
vt 0.000802 0.936799
vt 0.319113 0.936798
vt 0.000802 0.905599
vt 0.319113 0.905598
vt 0.000802 0.874399
vt 0.319112 0.874398
vt 0.000802 0.843199
vt 0.319112 0.843198
vt 0.000802 0.811999
vt 0.319112 0.811999
vt 0.642740 0.402546
vt 0.656777 0.410048
vt 0.646031 0.435991
vt 0.000802 0.780799
vt 0.319112 0.749599
vt 0.319112 0.780799
vt 0.906132 0.058223
vt 0.935405 0.112990
vt 0.660074 0.260157
vt 0.623111 0.787039
vt 0.320716 0.787039
vt 0.320716 0.758960
vt 0.798703 0.635960
vt 0.767503 0.635960
vt 0.769063 0.620121
vt 0.923465 0.402545
vt 0.909429 0.410048
vt 0.893829 0.386701
vt 0.630801 0.523771
vt 0.624714 0.493171
vt 0.640553 0.491611
vt 0.858128 0.337208
vt 0.850625 0.351245
vt 0.824683 0.340499
vt 0.682136 0.600599
vt 0.660074 0.578538
vt 0.672377 0.568441
vt 0.858128 0.617933
vt 0.850626 0.603897
vt 0.873973 0.588296
vt 0.736903 0.325269
vt 0.767503 0.319182
vt 0.769063 0.335021
vt 0.923465 0.552596
vt 0.909429 0.545093
vt 0.920175 0.519151
vt 0.660074 0.376604
vt 0.682136 0.354542
vt 0.692233 0.366845
vt 0.708078 0.617933
vt 0.715580 0.603897
vt 0.741523 0.614643
vt 0.941492 0.461971
vt 0.925653 0.463531
vt 0.920175 0.435990
vt 0.624714 0.461971
vt 0.630801 0.431371
vt 0.906131 0.376604
vt 0.873973 0.366845
vt 0.829304 0.629873
vt 0.797143 0.620121
vt 0.642741 0.552596
vt 0.646031 0.519151
vt 0.829303 0.325269
vt 0.797143 0.335021
vt 0.884070 0.600599
vt 0.893829 0.568441
vt 0.708078 0.337209
vt 0.741523 0.340499
vt 0.935405 0.523771
vt 0.925653 0.491611
vt 0.672377 0.386701
vt 0.736903 0.629873
vt 0.935405 0.431370
vt 0.640553 0.463531
vt 0.884070 0.354542
vt 0.824683 0.614643
vt 0.656777 0.545094
vt 0.798703 0.319182
vt 0.906132 0.578538
vt 0.715580 0.351245
vt 0.692233 0.588297
vt 0.941492 0.493171
vt 0.877990 0.870983
vt 0.781304 0.922662
vt 0.656538 0.689242
vt 0.623111 0.197362
vt 0.320716 0.197361
vt 0.320716 0.169281
vt 0.623111 0.506240
vt 0.320716 0.506240
vt 0.320716 0.478160
vt 0.623111 0.843199
vt 0.320716 0.843199
vt 0.320716 0.815119
vt 0.623111 0.562400
vt 0.320716 0.562400
vt 0.320716 0.534320
vt 0.623111 0.253521
vt 0.320716 0.253521
vt 0.320716 0.225441
vt 0.623111 0.899359
vt 0.320716 0.899359
vt 0.320716 0.871279
vt 0.623111 0.618560
vt 0.320716 0.618560
vt 0.320716 0.590480
vt 0.623111 0.309681
vt 0.320716 0.309681
vt 0.320716 0.281601
vt 0.623111 0.056962
vt 0.320716 0.056962
vt 0.320716 0.028882
vt 0.623111 0.674720
vt 0.320716 0.674720
vt 0.320716 0.646640
vt 0.623111 0.365841
vt 0.320716 0.365841
vt 0.320716 0.337761
vt 0.623111 0.702799
vt 0.320716 0.702800
vt 0.623111 0.113122
vt 0.320716 0.113121
vt 0.320716 0.085041
vt 0.623111 0.422001
vt 0.320716 0.422001
vt 0.320716 0.393921
vt 0.623111 0.758959
vt 0.320716 0.730880
vt 0.623111 0.169282
vt 0.320716 0.141201
vt 0.623111 0.478160
vt 0.320716 0.450080
vt 0.623111 0.815119
vt 0.623111 0.225441
vt 0.623111 0.534320
vt 0.623111 0.871279
vt 0.623111 0.590480
vt 0.623111 0.281601
vt 0.623111 0.028882
vt 0.320716 0.000801
vt 0.623111 0.646640
vt 0.623111 0.337761
vt 0.623111 0.085042
vt 0.623111 0.393921
vt 0.623111 0.730879
vt 0.623111 0.141202
vt 0.623111 0.450081
vt 0.319113 0.999197
vt 0.708078 0.018828
vt 0.884070 0.036162
vt 0.829304 0.006888
vt 0.858128 0.018828
vt 0.736903 0.006888
vt 0.767503 0.000801
vt 0.798703 0.000802
vt 0.642741 0.084164
vt 0.660075 0.058223
vt 0.682136 0.036162
vt 0.630801 0.112989
vt 0.630801 0.205391
vt 0.624714 0.174790
vt 0.624714 0.143590
vt 0.642741 0.234216
vt 0.767503 0.317579
vt 0.682136 0.282219
vt 0.736902 0.311492
vt 0.708077 0.299553
vt 0.829303 0.311492
vt 0.798703 0.317579
vt 0.884070 0.282219
vt 0.858128 0.299553
vt 0.923465 0.234215
vt 0.906131 0.260157
vt 0.941492 0.174790
vt 0.935405 0.205391
vt 0.941492 0.143591
vt 0.923465 0.084165
vt 0.904336 0.821693
vt 0.893590 0.847635
vt 0.909814 0.766072
vt 0.909814 0.794152
vt 0.904336 0.738532
vt 0.858135 0.669387
vt 0.877990 0.689242
vt 0.893590 0.712590
vt 0.834787 0.653786
vt 0.753224 0.637563
vt 0.781304 0.637563
vt 0.808845 0.643041
vt 0.699741 0.653786
vt 0.725684 0.643041
vt 0.676394 0.669387
vt 0.630192 0.738532
vt 0.640938 0.712590
vt 0.624714 0.794152
vt 0.624714 0.766073
vt 0.640938 0.847635
vt 0.630192 0.821693
vt 0.676394 0.890838
vt 0.656538 0.870983
vt 0.753224 0.922662
vt 0.699741 0.906439
vt 0.725684 0.917184
vt 0.834787 0.906438
vt 0.808845 0.917184
vt 0.858135 0.890838
vt 0.623111 0.000802
vn 0.000000 0.000000 -1.000000
vn 0.195100 0.000000 -0.980800
vn 0.382700 0.000000 -0.923900
vn 0.555600 0.000000 -0.831500
vn 0.707100 0.000000 -0.707100
vn 0.831500 0.000000 -0.555600
vn 0.923900 0.000000 -0.382700
vn 0.980800 0.000000 -0.195100
vn 1.000000 0.000000 -0.000000
vn 0.980800 0.000000 0.195100
vn 0.923900 0.000000 0.382700
vn 0.831500 0.000000 0.555600
vn 0.707100 0.000000 0.707100
vn 0.555600 0.000000 0.831500
vn 0.382700 0.000000 0.923900
vn 0.195100 0.000000 0.980800
vn 0.000000 0.000000 1.000000
vn -0.195100 0.000000 0.980800
vn -0.382700 0.000000 0.923900
vn -0.555600 0.000000 0.831500
vn -0.707100 0.000000 0.707100
vn -0.831500 0.000000 0.555600
vn -0.923900 0.000000 0.382700
vn -0.980800 0.000000 0.195100
vn -1.000000 0.000000 -0.000000
vn -0.980800 0.000000 -0.195100
vn -0.923900 0.000000 -0.382700
vn -0.831500 0.000000 -0.555600
vn -0.707100 0.000000 -0.707100
vn -0.555600 0.000000 -0.831500
vn -0.382700 0.000000 -0.923900
vn 0.000000 1.000000 0.000000
vn -0.195100 0.000000 -0.980800
vn 0.000000 -1.000000 0.000000
g Cylinder.005_Cylinder.006_None
usemtl None
s 1
f 2/1/1 4/2/2 3/3/2
f 4/2/2 6/4/3 5/5/3
f 6/4/3 8/6/4 7/7/4
f 8/6/4 10/8/5 9/9/5
f 10/8/5 12/10/6 11/11/6
f 12/10/6 14/12/7 13/13/7
f 14/12/7 16/14/8 15/15/8
f 16/14/8 18/16/9 17/17/9
f 18/16/9 20/18/10 19/19/10
f 20/18/10 22/20/11 21/21/11
f 22/20/11 24/22/12 23/23/12
f 24/22/12 26/24/13 25/25/13
f 26/24/13 28/26/14 27/27/14
f 28/26/14 30/28/15 29/29/15
f 30/28/15 32/30/16 31/31/16
f 32/30/16 34/32/17 33/33/17
f 34/32/17 36/34/18 35/35/18
f 36/34/18 38/36/19 37/37/19
f 38/36/19 40/38/20 39/39/20
f 40/38/20 42/40/21 41/41/21
f 42/40/21 44/42/22 43/43/22
f 44/42/22 46/44/23 45/45/23
f 46/44/23 48/46/24 47/47/24
f 48/46/24 50/48/25 49/49/25
f 50/50/25 52/51/26 51/52/26
f 52/51/26 54/53/27 53/54/27
f 54/53/27 56/55/28 55/56/28
f 56/55/28 58/57/29 57/58/29
f 58/57/29 60/59/30 59/60/30
f 60/59/30 62/61/31 61/62/31
f 182/63/32 91/64/32 92/65/32
f 64/66/33 2/1/1 1/67/1
f 62/61/31 64/66/33 63/68/33
f 129/69/34 133/70/34 161/71/34
f 221/72/13 253/73/13 126/74/14
f 140/75/32 138/76/32 69/77/32
f 160/78/32 80/79/32 81/80/32
f 190/81/32 188/82/32 222/83/32
f 166/84/32 83/85/32 84/86/32
f 131/87/32 132/88/32 65/89/32
f 144/90/32 72/91/32 73/92/32
f 174/93/32 172/94/32 86/95/32
f 150/96/32 75/97/32 76/98/32
f 180/99/32 178/100/32 89/101/32
f 134/102/32 67/103/32 68/104/32
f 156/105/32 78/106/32 79/107/32
f 186/108/32 184/109/32 92/65/32
f 162/110/32 81/80/32 82/111/32
f 142/112/32 140/75/32 70/113/32
f 192/114/32 190/81/32 95/115/32
f 168/116/32 84/86/32 85/117/32
f 146/118/32 73/92/32 74/119/32
f 176/120/32 174/93/32 87/121/32
f 152/122/32 76/98/32 77/123/32
f 182/63/32 180/99/32 90/124/32
f 138/76/32 136/125/32 68/104/32
f 160/78/32 158/126/32 79/107/32
f 188/82/32 186/108/32 93/127/32
f 166/84/32 164/128/32 82/111/32
f 142/112/32 71/129/32 72/91/32
f 192/114/32 96/130/32 65/89/32
f 170/131/32 85/117/32 86/95/32
f 150/96/32 148/132/32 74/119/32
f 176/120/32 88/133/32 89/101/32
f 131/87/32 66/134/32 67/103/32
f 154/135/32 77/123/32 78/106/32
f 98/136/32 254/137/32 114/138/32
f 210/139/2 242/140/2 243/141/3
f 199/142/23 231/143/23 232/144/24
f 219/145/11 251/146/11 252/147/12
f 197/148/21 229/149/21 230/150/22
f 208/151/33 240/152/33 241/153/1
f 217/154/9 249/155/9 250/156/10
f 195/157/19 227/158/19 228/159/20
f 206/160/30 238/161/30 239/162/31
f 215/163/7 247/164/7 248/165/8
f 194/166/17 226/167/17 225/168/18
f 204/169/28 236/170/28 237/171/29
f 224/172/16 256/173/16 226/167/17
f 213/174/5 245/175/5 246/176/6
f 202/177/26 234/178/26 235/179/27
f 94/180/14 126/74/14 255/181/15
f 211/182/3 243/141/3 244/183/4
f 200/184/24 232/144/24 233/185/25
f 220/186/12 252/147/12 253/73/13
f 209/187/1 241/153/1 242/140/2
f 198/188/22 230/150/22 231/143/23
f 218/189/10 250/156/10 251/146/11
f 196/190/20 228/159/20 229/149/21
f 207/191/31 239/162/31 240/152/33
f 216/192/8 248/165/8 249/193/9
f 193/194/18 225/168/18 227/158/19
f 205/195/29 237/171/29 238/161/30
f 214/196/6 246/176/6 247/164/7
f 203/197/27 235/179/27 236/170/28
f 223/198/15 255/181/15 256/173/16
f 212/199/4 244/183/4 245/175/5
f 201/200/25 233/185/25 234/178/26
f 1/67/1 2/1/1 3/3/2
f 3/3/2 4/2/2 5/5/3
f 5/5/3 6/4/3 7/7/4
f 7/7/4 8/6/4 9/9/5
f 9/9/5 10/8/5 11/11/6
f 11/11/6 12/10/6 13/13/7
f 13/13/7 14/12/7 15/15/8
f 15/15/8 16/14/8 17/17/9
f 17/17/9 18/16/9 19/19/10
f 19/19/10 20/18/10 21/21/11
f 21/21/11 22/20/11 23/23/12
f 23/23/12 24/22/12 25/25/13
f 25/25/13 26/24/13 27/27/14
f 27/27/14 28/26/14 29/29/15
f 29/29/15 30/28/15 31/31/16
f 31/31/16 32/30/16 33/33/17
f 33/33/17 34/32/17 35/35/18
f 35/35/18 36/34/18 37/37/19
f 37/37/19 38/36/19 39/39/20
f 39/39/20 40/38/20 41/41/21
f 41/41/21 42/40/21 43/43/22
f 43/43/22 44/42/22 45/45/23
f 45/45/23 46/44/23 47/47/24
f 47/47/24 48/46/24 49/49/25
f 49/201/25 50/50/25 51/52/26
f 51/52/26 52/51/26 53/54/27
f 53/54/27 54/53/27 55/56/28
f 55/56/28 56/55/28 57/58/29
f 57/58/29 58/57/29 59/60/30
f 59/60/30 60/59/30 61/62/31
f 184/109/32 182/63/32 92/65/32
f 63/68/33 64/66/33 1/67/1
f 61/62/31 62/61/31 63/68/33
f 179/202/34 191/203/34 129/69/34
f 191/203/34 187/204/34 189/205/34
f 181/206/34 183/207/34 185/208/34
f 185/208/34 179/202/34 181/206/34
f 173/209/34 175/210/34 177/211/34
f 177/211/34 171/212/34 173/209/34
f 165/213/34 167/214/34 169/215/34
f 161/71/34 163/216/34 165/213/34
f 153/217/34 159/218/34 161/71/34
f 153/217/34 155/219/34 157/220/34
f 149/221/34 151/222/34 153/217/34
f 145/223/34 147/224/34 149/221/34
f 141/225/34 143/226/34 145/223/34
f 137/227/34 139/228/34 141/225/34
f 141/225/34 135/229/34 137/227/34
f 129/69/34 130/230/34 133/70/34
f 179/202/34 185/208/34 191/203/34
f 187/204/34 191/203/34 185/208/34
f 169/215/34 171/212/34 177/211/34
f 161/71/34 165/213/34 169/215/34
f 153/217/34 157/220/34 159/218/34
f 145/223/34 149/221/34 153/217/34
f 133/70/34 141/225/34 145/223/34
f 141/225/34 133/70/34 135/229/34
f 177/211/34 179/202/34 129/69/34
f 161/71/34 169/215/34 177/211/34
f 145/223/34 153/217/34 161/71/34
f 161/71/34 133/70/34 145/223/34
f 161/71/34 177/211/34 129/69/34
f 94/180/14 221/72/13 126/74/14
f 70/113/32 140/75/32 69/77/32
f 162/110/32 160/78/32 81/80/32
f 95/115/32 190/81/32 222/83/32
f 168/116/32 166/84/32 84/86/32
f 66/134/32 131/87/32 65/89/32
f 146/118/32 144/90/32 73/92/32
f 87/121/32 174/93/32 86/95/32
f 152/122/32 150/96/32 76/98/32
f 90/124/32 180/99/32 89/101/32
f 136/125/32 134/102/32 68/104/32
f 158/126/32 156/105/32 79/107/32
f 93/127/32 186/108/32 92/65/32
f 164/128/32 162/110/32 82/111/32
f 71/129/32 142/112/32 70/113/32
f 96/130/32 192/114/32 95/115/32
f 170/131/32 168/116/32 85/117/32
f 148/132/32 146/118/32 74/119/32
f 88/133/32 176/120/32 87/121/32
f 154/135/32 152/122/32 77/123/32
f 91/64/32 182/63/32 90/124/32
f 69/77/32 138/76/32 68/104/32
f 80/79/32 160/78/32 79/107/32
f 222/83/32 188/82/32 93/127/32
f 83/85/32 166/84/32 82/111/32
f 144/90/32 142/112/32 72/91/32
f 132/88/32 192/114/32 65/89/32
f 172/94/32 170/131/32 86/95/32
f 75/97/32 150/96/32 74/119/32
f 178/100/32 176/120/32 89/101/32
f 134/102/32 131/87/32 67/103/32
f 156/105/32 154/135/32 78/106/32
f 100/231/32 99/232/32 98/136/32
f 102/233/32 101/234/32 100/231/32
f 98/136/32 103/235/32 102/233/32
f 106/236/32 105/237/32 104/238/32
f 114/138/32 107/239/32 106/236/32
f 110/240/32 109/241/32 108/242/32
f 112/243/32 111/244/32 110/240/32
f 114/138/32 113/245/32 112/243/32
f 116/246/32 115/247/32 114/138/32
f 118/248/32 117/249/32 116/246/32
f 120/250/32 119/251/32 118/248/32
f 122/252/32 121/253/32 120/250/32
f 125/254/32 123/255/32 122/252/32
f 123/255/32 125/254/32 124/256/32
f 128/257/32 127/258/32 254/137/32
f 98/136/32 97/259/32 128/257/32
f 102/233/32 100/231/32 98/136/32
f 98/136/32 104/238/32 103/235/32
f 110/240/32 108/242/32 107/239/32
f 107/239/32 112/243/32 110/240/32
f 118/248/32 116/246/32 114/138/32
f 122/252/32 120/250/32 118/248/32
f 254/137/32 125/254/32 122/252/32
f 98/136/32 128/257/32 254/137/32
f 106/236/32 104/238/32 98/136/32
f 114/138/32 112/243/32 107/239/32
f 122/252/32 118/248/32 114/138/32
f 114/138/32 254/137/32 122/252/32
f 114/138/32 106/236/32 98/136/32
f 211/182/3 210/139/2 243/141/3
f 200/184/24 199/142/23 232/144/24
f 220/186/12 219/145/11 252/147/12
f 198/188/22 197/148/21 230/150/22
f 209/187/1 208/151/33 241/153/1
f 218/189/10 217/154/9 250/156/10
f 196/190/20 195/157/19 228/159/20
f 207/191/31 206/160/30 239/162/31
f 216/192/8 215/163/7 248/165/8
f 193/194/18 194/166/17 225/168/18
f 205/195/29 204/169/28 237/171/29
f 194/166/17 224/172/16 226/167/17
f 214/196/6 213/174/5 246/176/6
f 203/197/27 202/177/26 235/179/27
f 223/198/15 94/180/14 255/181/15
f 212/199/4 211/182/3 244/183/4
f 201/200/25 200/184/24 233/185/25
f 221/72/13 220/186/12 253/73/13
f 210/139/2 209/187/1 242/140/2
f 199/142/23 198/188/22 231/143/23
f 219/145/11 218/189/10 251/146/11
f 197/148/21 196/190/20 229/149/21
f 208/151/33 207/191/31 240/152/33
f 217/260/9 216/192/8 249/193/9
f 195/157/19 193/194/18 227/158/19
f 206/160/30 205/195/29 238/161/30
f 215/163/7 214/196/6 247/164/7
f 204/169/28 203/197/27 236/170/28
f 224/172/16 223/198/15 256/173/16
f 213/174/5 212/199/4 245/175/5
f 202/177/26 201/200/25 234/178/26
